<svg width="267" height="55" viewBox="0 0 267 55" fill="none" xmlns="http://www.w3.org/2000/svg">
<g clip-path="url(#clip0_8_93)">
<path fill-rule="evenodd" clip-rule="evenodd" d="M34.7543 9.44758C23.1695 22.8529 11.5848 36.2583 0 49.6636C18.4255 36.2015 36.851 22.7313 55.2685 9.26917C46.6143 -0.616561 31.8561 -2.96837 21.0485 4.02219C10.2328 11.0128 6.59789 23.5341 9.77135 34.4741C8.4113 15.5623 19.5265 7.2093 34.7543 9.44758Z" fill="url(#paint0_angular_8_93)"/>
<path fill-rule="evenodd" clip-rule="evenodd" d="M34.8029 45.5522C46.3876 32.1469 57.9724 18.7415 69.5571 5.33618C51.1316 18.7983 32.7061 32.2604 14.2806 45.7306C22.9428 55.6244 37.693 57.9681 48.5087 50.9776C59.3162 43.987 62.9592 31.4656 59.7777 20.5257C61.1377 39.4375 50.0306 47.7905 34.8029 45.5522Z" fill="#0089CD"/>
<path d="M80.1542 23.2019V3.19522H83.4734V12.0672H84.8092L89.1079 3.19522H92.6781L87.8369 12.8133L92.8157 23.21H89.1727L84.9873 14.1677H83.4734V23.21H80.1542V23.2019ZM100.66 23.6073C99.5512 23.6073 98.5717 23.4857 97.7216 23.2343C96.8635 22.9829 96.2078 22.4801 95.7382 21.7097C95.2687 20.9393 95.0339 19.7796 95.0339 18.2225V7.38794C95.0339 6.17148 95.2768 5.23887 95.7544 4.5982C96.232 3.95754 96.904 3.5115 97.754 3.2601C98.6121 3.0087 99.5917 2.88705 100.693 2.88705C101.794 2.88705 102.789 3.01681 103.656 3.27632C104.522 3.53583 105.202 3.98997 105.696 4.63064C106.19 5.27131 106.432 6.19581 106.432 7.38794V18.2225C106.432 19.7796 106.19 20.9393 105.696 21.7097C105.202 22.4801 104.522 22.9829 103.656 23.2343C102.789 23.4857 101.794 23.6073 100.66 23.6073ZM100.693 21.7421C101.413 21.7421 101.996 21.588 102.441 21.2718C102.887 20.9555 103.105 20.2905 103.105 19.2768V7.29062C103.105 6.27691 102.879 5.61191 102.417 5.31186C101.964 5.00369 101.381 4.85771 100.685 4.85771C99.9641 4.85771 99.3731 5.0118 98.9198 5.31186C98.4664 5.62002 98.2316 6.27691 98.2316 7.29062V19.2768C98.2316 20.2905 98.4583 20.9555 98.9198 21.2718C99.3812 21.588 99.9722 21.7421 100.693 21.7421ZM109.865 23.2019V3.19522H113.905L117.621 17.6467L121.377 3.19522H125.384V23.2019H122.462V7.66367L118.778 23.2019H116.471L112.787 7.66367V23.2019H109.865ZM128.566 23.2019V3.19522H139.827V23.2019H136.362V5.39295H132.031V23.2019H128.566ZM141.6 23.2019L145.826 3.19522H150.408L154.561 23.2019H150.918L150.019 19.074H145.939L145.105 23.2019H141.6ZM146.004 17.4764H149.979L148.028 6.2688L146.004 17.4764ZM156.868 23.2019V3.19522H160.155V11.6212H164.955V3.19522H168.242V23.2019H164.955V13.9568H160.155V23.2019H156.868ZM171.416 23.2019V3.19522H174.379V16.9412L179.827 3.19522H182.749V23.2019H179.827V10.129L174.379 23.1938H171.416V23.2019ZM197.297 23.2019V3.19522H190.003C188.7 3.19522 187.68 3.47906 186.935 4.03863C186.19 4.60631 185.818 5.44161 185.818 6.54453V9.72353C185.818 10.8265 186.15 11.7185 186.813 12.3997C187.477 13.0728 188.441 13.4459 189.72 13.5189C188.902 13.5838 188.319 13.8433 187.971 14.2812C187.623 14.7191 187.307 15.3922 187.016 16.2924L184.919 23.2019H188.53L190.262 16.4951C190.432 15.9275 190.643 15.4328 190.894 14.9867C191.145 14.5488 191.517 14.3298 191.995 14.3298H193.873V23.2019H197.297ZM193.865 12.1646H191.444C190.675 12.1646 190.084 11.978 189.679 11.605C189.266 11.2319 189.064 10.5832 189.064 9.65866V7.08788C189.064 6.31746 189.258 5.766 189.639 5.42539C190.027 5.08478 190.481 4.91448 191.007 4.91448H193.857V12.1646H193.865ZM80.1542 50.345V30.3384H91.4152V50.345H87.9503V32.5442H83.6191V50.3531H80.1542V50.345ZM94.6291 50.345V30.3384H101.778C103.081 30.3384 104.101 30.6222 104.846 31.1818C105.591 31.7495 105.963 32.5848 105.963 33.6877V37.2398C105.963 38.0994 105.841 38.886 105.599 39.6078C105.356 40.3295 104.919 40.9134 104.279 41.3514C103.639 41.7893 102.725 42.0083 101.518 42.0083H98.0535V50.3369H94.6291V50.345ZM98.0616 40.2566H100.409C101.154 40.2566 101.721 39.9889 102.109 39.4618C102.498 38.9347 102.684 38.0832 102.684 36.9073V34.9771C102.684 33.9634 102.506 33.2255 102.158 32.7632C101.81 32.3009 101.373 32.0658 100.838 32.0658H98.0616V40.2566ZM114.018 50.7505C112.909 50.7505 111.929 50.6289 111.079 50.3775C110.221 50.1261 109.565 49.6233 109.096 48.8528C108.626 48.0824 108.392 46.9227 108.392 45.3657V34.5392C108.392 33.3228 108.634 32.3902 109.112 31.7495C109.59 31.1088 110.262 30.6628 111.112 30.4114C111.97 30.16 112.949 30.0383 114.05 30.0383C115.151 30.0383 116.147 30.1681 117.013 30.4276C117.88 30.6871 118.56 31.1413 119.053 31.7819C119.547 32.4226 119.79 33.3471 119.79 34.5392V45.3738C119.79 46.9308 119.547 48.0905 119.053 48.861C118.56 49.6314 117.88 50.1342 117.013 50.3856C116.147 50.6289 115.151 50.7505 114.018 50.7505ZM114.05 48.8934C114.771 48.8934 115.354 48.7393 115.799 48.423C116.244 48.1068 116.463 47.4418 116.463 46.428V34.4338C116.463 33.4201 116.236 32.7551 115.775 32.455C115.321 32.1469 114.739 32.0009 114.042 32.0009C113.322 32.0009 112.731 32.155 112.277 32.455C111.824 32.7632 111.589 33.4201 111.589 34.4338V46.4199C111.589 47.4337 111.816 48.0986 112.277 48.4149C112.739 48.7312 113.33 48.8934 114.05 48.8934ZM123.223 50.345V30.3384H127.262L130.978 44.7899L134.735 30.3384H138.742V50.345H135.819V34.8068L132.136 50.345H129.829L126.145 34.8068V50.345H123.223ZM147.914 50.7505C146.781 50.7505 145.785 50.6289 144.919 50.3775C144.053 50.1261 143.381 49.6233 142.895 48.8528C142.417 48.0824 142.174 46.9227 142.174 45.3657V34.5392C142.174 33.3228 142.417 32.3902 142.895 31.7495C143.373 31.1088 144.053 30.6628 144.935 30.4114C145.809 30.16 146.821 30.0383 147.947 30.0383C149.08 30.0383 150.068 30.1681 150.91 30.4276C151.751 30.6871 152.407 31.1413 152.877 31.7819C153.346 32.4226 153.581 33.3471 153.581 34.5392V38.3994H150.262V34.4419C150.262 33.3795 150.043 32.7064 149.598 32.4145C149.153 32.1225 148.594 31.9766 147.922 31.9766C147.226 31.9766 146.659 32.1225 146.222 32.4145C145.785 32.7064 145.575 33.3876 145.575 34.4419V46.428C145.575 47.4904 145.793 48.1635 146.222 48.4555C146.651 48.7474 147.218 48.8934 147.922 48.8934C148.618 48.8934 149.185 48.7474 149.622 48.4555C150.051 48.1635 150.27 47.4823 150.27 46.428V42.9003H153.589V45.3738C153.589 46.9308 153.354 48.0905 152.885 48.861C152.415 49.6314 151.751 50.1342 150.901 50.3856C150.035 50.6289 149.048 50.7505 147.914 50.7505ZM156.827 50.345V30.3384H166.356V32.5361H160.252V38.7319H165.271V41.173H160.252V48.1797H166.356V50.345H156.827ZM169.027 50.345V30.3384H176.176C177.479 30.3384 178.499 30.6222 179.244 31.1818C179.989 31.7495 180.361 32.5848 180.361 33.6877V37.2398C180.361 38.0994 180.24 38.886 179.997 39.6078C179.754 40.3295 179.317 40.9134 178.677 41.3514C178.038 41.7893 177.123 42.0083 175.917 42.0083H172.452V50.3369H169.027V50.345ZM172.46 40.2566H174.808C175.552 40.2566 176.119 39.9889 176.508 39.4618C176.896 38.9347 177.083 38.0832 177.083 36.9073V34.9771C177.083 33.9634 176.904 33.2255 176.556 32.7632C176.208 32.3009 175.771 32.0658 175.237 32.0658H172.46V40.2566ZM183.073 50.345V30.3384H190.181C191.46 30.3384 192.464 30.6222 193.193 31.1818C193.929 31.7495 194.294 32.5848 194.294 33.6877V36.0233C194.294 37.2641 193.929 38.2129 193.209 38.8698C192.917 39.1374 192.577 39.3402 192.181 39.4618C191.784 39.5835 191.42 39.6564 191.08 39.6808C191.493 39.7051 191.889 39.7619 192.27 39.8511C192.658 39.9403 193.006 40.1106 193.314 40.362C193.678 40.7026 193.97 41.1162 194.197 41.6109C194.423 42.1056 194.537 42.6976 194.537 43.3707V46.1766C194.537 47.3039 194.334 48.1716 193.937 48.7636C193.541 49.3638 192.99 49.7774 192.278 49.9963C191.565 50.2234 190.732 50.3369 189.768 50.3369H183.073V50.345ZM186.392 39.0401H188.772C189.517 39.0401 190.092 38.8293 190.505 38.3994C190.918 37.9696 191.12 37.3046 191.12 36.4045V34.2392C191.12 33.4687 190.934 32.9173 190.562 32.5767C190.189 32.2361 189.736 32.0658 189.21 32.0658H186.392V39.0401ZM186.392 48.6582H189.064C189.712 48.6582 190.238 48.496 190.634 48.1635C191.031 47.8391 191.234 47.1093 191.234 45.982V43.4437C191.234 42.4543 191.007 41.8055 190.545 41.4973C190.092 41.1892 189.525 41.0432 188.845 41.0432H186.392V48.6582ZM197.297 50.345V30.3384H200.26V44.0843L205.708 30.3384H208.631V50.345H205.708V37.2803L200.26 50.345H197.297ZM217.334 50.7505C216.2 50.7505 215.205 50.6289 214.338 50.3775C213.472 50.1261 212.8 49.6233 212.314 48.8528C211.837 48.0824 211.594 46.9227 211.594 45.3657V34.5392C211.594 33.3228 211.837 32.3902 212.314 31.7495C212.792 31.1088 213.472 30.6628 214.355 30.4114C215.237 30.16 216.241 30.0383 217.366 30.0383C218.499 30.0383 219.487 30.1681 220.329 30.4276C221.171 30.6871 221.827 31.1413 222.296 31.7819C222.766 32.4226 223.001 33.3471 223.001 34.5392V38.3994H219.681V34.4419C219.681 33.3795 219.455 32.7064 219.018 32.4145C218.572 32.1225 218.014 31.9766 217.342 31.9766C216.646 31.9766 216.079 32.1225 215.642 32.4145C215.205 32.7064 214.994 33.3876 214.994 34.4419V46.428C214.994 47.4904 215.213 48.1635 215.642 48.4555C216.071 48.7474 216.637 48.8934 217.342 48.8934C218.046 48.8934 218.605 48.7474 219.042 48.4555C219.479 48.1635 219.689 47.4823 219.689 46.428V42.9003H223.009V45.3738C223.009 46.9308 222.774 48.0905 222.304 48.861C221.835 49.6314 221.171 50.1342 220.321 50.3856C219.455 50.6289 218.459 50.7505 217.334 50.7505ZM225.818 42.1867V40.0863H233.258V42.1867H225.818Z" fill="#000"/>
<path d="M248.987 50.7505C247.854 50.7505 246.858 50.6289 245.992 50.3775C245.126 50.1261 244.446 49.6233 243.952 48.8528C243.458 48.0824 243.215 46.9146 243.215 45.3332V41.1H239.313V50.345H235.994V30.3384H239.313V38.7644H243.215V34.5635C243.215 33.3471 243.458 32.4064 243.952 31.7576C244.446 31.1007 245.134 30.6547 246.008 30.4033C246.891 30.1519 247.894 30.0302 249.02 30.0302C250.153 30.0302 251.141 30.16 251.999 30.4195C252.857 30.679 253.513 31.1331 253.982 31.7738C254.452 32.4145 254.687 33.3471 254.687 34.5635V45.3332C254.687 46.9146 254.452 48.0905 253.982 48.8528C253.513 49.6233 252.849 50.1261 251.999 50.3775C251.149 50.6289 250.145 50.7505 248.987 50.7505ZM249.028 48.8934C249.7 48.8934 250.258 48.7555 250.704 48.4717C251.149 48.1878 251.367 47.531 251.367 46.4929V34.3689C251.367 33.3552 251.141 32.7064 250.704 32.4226C250.258 32.1387 249.7 32.0009 249.028 32.0009C248.332 32.0009 247.765 32.1387 247.328 32.4226C246.891 32.7064 246.68 33.3552 246.68 34.3689V46.4848C246.68 47.5228 246.899 48.1797 247.328 48.4636C247.765 48.7474 248.332 48.8934 249.028 48.8934ZM257.399 50.345V30.3384H267V32.5361H260.864V50.345H257.399Z" fill="#0089CD"/>
</g>
<defs>
<radialGradient id="paint0_angular_8_93" cx="0" cy="0" r="1" gradientUnits="userSpaceOnUse" gradientTransform="translate(36.4301 25.1399) rotate(-33.0342) scale(55.0426 55.7059)">
<stop offset="0.0259647" stop-color="#ECECEC"/>
<stop offset="0.484375" stop-color="#5C5F63"/>
<stop offset="0.573408" stop-color="#CFD0D1"/>
<stop offset="0.744792" stop-color="#C1C1C1"/>
<stop offset="0.83216" stop-color="#D8DBDD"/>
<stop offset="0.92915" stop-color="#B4B4B5"/>
</radialGradient>
<clipPath id="clip0_8_93">
<rect width="267" height="55" fill="#000"/>
</clipPath>
</defs>
</svg>
