<svg width="178" height="179" viewBox="0 0 178 179" fill="none" xmlns="http://www.w3.org/2000/svg">
<path d="M21.6027 63.0224L20.5575 65.3943L9.02737 60.3133L13.2809 50.661L24.811 55.742L23.773 58.0974L14.3678 53.9528L12.1974 58.8778L21.6027 63.0224Z" fill="white"/>
<path d="M27.5814 51.2172L26.1501 53.3782L15.6453 46.4206L18.6868 41.8285C19.4356 40.698 20.3204 40.003 21.3414 39.7437C22.359 39.4677 23.3381 39.6412 24.2785 40.264C25.2289 40.8935 25.7756 41.7306 25.9185 42.7752C26.0781 43.8165 25.7835 44.9024 25.0347 46.0329L23.4245 48.464L27.5814 51.2172ZM18.9675 45.512L21.5786 47.2414L23.0895 44.9604C23.434 44.4402 23.5923 43.9621 23.5644 43.5262C23.5265 43.0836 23.2974 42.7232 22.8772 42.4449C22.457 42.1666 22.0408 42.0996 21.6285 42.244C21.2062 42.3817 20.8228 42.7107 20.4783 43.2309L18.9675 45.512Z" fill="white"/>
<path d="M32.2723 39.3335C33.3502 39.3315 34.2736 38.9261 35.0424 38.1171C35.803 37.3169 36.1568 36.3784 36.1039 35.3018C36.0511 34.2252 35.5941 33.2776 34.733 32.4592C33.8718 31.6408 32.9023 31.2326 31.8244 31.2346C30.7464 31.2365 29.8272 31.6376 29.0667 32.4379C28.2979 33.2468 27.9399 34.1896 27.9927 35.2662C28.0451 36.3259 28.5063 37.2691 29.3761 38.0957C30.2459 38.9224 31.2113 39.335 32.2723 39.3335ZM27.5533 40.0137C26.2137 38.7406 25.5174 37.2263 25.4642 35.4706C25.3937 33.6984 26.0074 32.1295 27.3052 30.7638C28.5949 29.4069 30.1264 28.7186 31.8999 28.699C33.6817 28.6706 35.2336 29.2847 36.5558 30.5412C37.8692 31.7895 38.5614 33.3083 38.6324 35.0974C38.703 36.8696 38.0934 38.4342 36.8038 39.7911C35.5059 41.1568 33.9703 41.8494 32.1968 41.8691C30.4233 41.8887 28.8754 41.2703 27.5533 40.0137Z" fill="white"/>
<path d="M44.9527 35.2192L42.9669 36.6198L40.145 32.6188L41.16 31.9029C41.1229 30.8718 40.8436 29.7472 40.3222 28.529C39.8186 27.357 38.9582 25.908 37.7409 24.1821L36.5894 22.5494L43.8264 17.4451L49.7503 25.8442L51.1624 24.8482L53.9843 28.8492L51.9985 30.2498L50.515 28.1463L43.4691 33.1157L44.9527 35.2192ZM43.4988 30.2534L47.6321 27.3381L43.0466 20.8365L40.0311 22.9633C41.034 24.3853 41.8117 25.6649 42.3643 26.8024C42.9267 27.9329 43.3049 29.0832 43.4988 30.2534Z" fill="white"/>
<path d="M55.8965 25.4391C55.1138 25.8051 54.4869 25.9658 54.0156 25.9212L53.0473 23.8504C53.5134 23.8841 54.002 23.7815 54.5129 23.5426C54.9912 23.319 55.3208 23.0324 55.5018 22.6828C55.6769 22.3492 55.7747 21.7934 55.7951 21.0155L47.7457 15.0628L50.3383 13.8505L55.8472 18.1099L55.7517 11.3191L58.2464 10.1525L58.2179 21.055C58.2139 23.2559 57.44 24.7173 55.8965 25.4391Z" fill="white"/>
<path d="M66.9325 20.6248L64.436 21.3217L61.0482 9.1857L63.5448 8.48878L64.8805 13.2738L68.0178 7.24014L71.0691 6.38836L67.4735 13.391L75.3411 18.2776L72.151 19.1681L65.3693 15.0249L66.9325 20.6248Z" fill="white"/>
<path d="M88.6018 19.6219L86.1634 19.8388L85.9354 17.2749L76.2177 18.1391L75.1016 5.58867L77.6834 5.35906L78.5938 15.5967L83.8471 15.1295L82.9366 4.89187L85.5184 4.66226L86.4289 14.8999L88.168 14.7452L88.6018 19.6219Z" fill="white"/>
<path d="M92.8176 17.36L90.6505 17.1421L91.9115 4.60531L94.4905 4.86471L93.6691 13.0315L100.562 5.47539L102.783 5.69877L101.522 18.2355L98.9606 17.9779L99.7875 9.75739L92.8176 17.36Z" fill="white"/>
<path d="M105.577 19.2142L102.708 18.3781L107.999 14.3141C107.274 13.8404 106.773 13.2444 106.495 12.5259C106.232 11.7992 106.218 11.0327 106.453 10.2262C106.762 9.16631 107.386 8.41714 108.326 7.9787C109.258 7.52539 110.37 7.48675 111.66 7.8628L117.259 9.49459L113.734 21.5913L111.245 20.8661L112.67 15.9756L110.562 15.3611L105.577 19.2142ZM110.307 13.0183L113.28 13.8845L114.136 10.9468L111.164 10.0805C110.599 9.91599 110.117 9.91921 109.717 10.0902C109.332 10.253 109.073 10.5648 108.938 11.0256C108.801 11.498 108.85 11.9062 109.088 12.2503C109.336 12.5978 109.743 12.8538 110.307 13.0183Z" fill="white"/>
<path d="M126.036 28.0111C124.349 27.0225 123.255 25.6726 122.755 23.9614C122.268 22.2294 122.503 20.5455 123.462 18.9095C124.432 17.2528 125.781 16.2209 127.507 15.8138C129.244 15.4127 130.962 15.7095 132.66 16.7043C133.716 17.3229 134.54 18.1118 135.133 19.0708L133.814 21.3229C133.302 20.2724 132.514 19.4348 131.447 18.8101C130.422 18.2096 129.36 18.0397 128.262 18.3003C127.19 18.5626 126.351 19.2115 125.745 20.247C125.138 21.2824 124.99 22.3428 125.3 23.4283C125.605 24.4974 126.296 25.3473 127.373 25.9781C128.564 26.6756 129.743 26.9421 130.91 26.7775L129.591 29.0296C128.402 29.0421 127.217 28.7026 126.036 28.0111Z" fill="white"/>
<path d="M135.78 30.4137C135.837 31.4901 136.289 32.3916 137.136 33.1183C137.974 33.8371 138.929 34.1428 140.002 34.0352C141.074 33.9277 141.997 33.4231 142.771 32.5214C143.544 31.6198 143.903 30.6307 143.846 29.5543C143.789 28.4778 143.342 27.5802 142.504 26.8614C141.657 26.1347 140.697 25.8252 139.624 25.9327C138.569 26.039 137.65 26.5475 136.869 27.4582C136.088 28.369 135.725 29.3542 135.78 30.4137ZM134.861 25.7354C136.064 24.3328 137.541 23.5603 139.292 23.4179C141.058 23.2573 142.656 23.7903 144.086 25.0171C145.507 26.236 146.272 27.7305 146.382 29.5007C146.501 31.2787 145.967 32.8599 144.779 34.2443C143.599 35.6195 142.118 36.3881 140.334 36.55C138.568 36.7107 136.974 36.1815 135.554 34.9626C134.124 33.7359 133.354 32.2374 133.244 30.4672C133.134 28.697 133.673 27.1197 134.861 25.7354Z" fill="white"/>
<path d="M146.358 40.7119C146.204 41.7788 146.471 42.7511 147.16 43.6291C147.842 44.4976 148.719 44.9837 149.792 45.0875C150.865 45.1912 151.868 44.8764 152.803 44.143C153.738 43.4096 154.282 42.5094 154.436 41.4426C154.591 40.3758 154.327 39.4081 153.645 38.5396C152.956 37.6617 152.075 37.1708 151.003 37.0671C149.946 36.9653 148.946 37.2849 148.002 38.0257C147.058 38.7665 146.51 39.6619 146.358 40.7119ZM146.369 35.9441C147.823 34.8033 149.422 34.3338 151.167 34.5357C152.931 34.7227 154.394 35.5573 155.557 37.0394C156.713 38.5121 157.172 40.1273 156.934 41.8849C156.704 43.6519 155.871 45.0985 154.436 46.2245C153.011 47.3432 151.408 47.808 149.627 47.6189C147.864 47.4318 146.404 46.6019 145.248 45.1293C144.085 43.6471 143.622 42.0273 143.86 40.2697C144.098 38.512 144.934 37.0702 146.369 35.9441Z" fill="white"/>
<path d="M158.788 45.9001L160.83 44.7936L165.865 54.0828L163.823 55.1893L161.919 51.6762L152.883 56.574L151.648 54.2952L160.684 49.3974L158.788 45.9001Z" fill="white"/>
<path d="M157.108 66.7068L155.017 60.726L166.911 56.5666L168.865 62.1567C169.25 63.2554 169.294 64.2187 168.999 65.0466C168.708 65.8858 168.092 66.4698 167.152 66.7986C166.574 67.0006 166.032 67.0313 165.525 66.8908C165.018 66.7502 164.599 66.4964 164.267 66.1293C164.357 66.8225 164.204 67.5117 163.808 68.1968C163.419 68.8667 162.794 69.3521 161.934 69.6532C160.925 70.0058 159.979 69.9172 159.095 69.3874C158.214 68.869 157.552 67.9755 157.108 66.7068ZM161.089 61.3485L157.979 62.4359L159.055 65.5113C159.269 66.123 159.565 66.5532 159.945 66.8019C160.335 67.0466 160.78 67.0818 161.278 66.9075C161.777 66.7332 162.103 66.4286 162.256 65.9937C162.409 65.5589 162.378 65.0356 162.164 64.4239L161.089 61.3485ZM165.727 59.7264L163.111 60.6414L164.073 63.394C164.252 63.9037 164.503 64.2605 164.829 64.4645C165.159 64.6798 165.527 64.7161 165.935 64.5735C166.354 64.4269 166.625 64.1668 166.749 63.7931C166.888 63.4267 166.868 62.9886 166.69 62.4789L165.727 59.7264Z" fill="white"/>
<path d="M160.475 81.6067L158.847 72.2981L171.258 70.127L172.852 79.2406L170.565 79.6407L169.418 73.0803L167.024 73.499L167.948 78.7828L165.696 79.1767L164.772 73.8929L161.581 74.4512L162.762 81.2066L160.475 81.6067Z" fill="white"/>
<path d="M170.858 82.4205L173.179 82.3668L173.424 92.9299L171.103 92.9837L171.01 88.9888L160.735 89.2268L160.675 86.6355L170.95 86.3975L170.858 82.4205Z" fill="white"/>
<path d="M159.642 100.297C159.905 98.3587 160.73 96.8298 162.117 95.7101C163.528 94.5936 165.173 94.1628 167.052 94.4177C168.954 94.6758 170.426 95.5233 171.466 96.9602C172.505 98.409 172.892 100.108 172.627 102.059C172.463 103.271 172.052 104.336 171.395 105.252L168.808 104.901C169.581 104.025 170.051 102.975 170.217 101.75C170.377 100.573 170.125 99.5272 169.462 98.6137C168.807 97.7257 167.885 97.201 166.696 97.0397C165.507 96.8784 164.471 97.1496 163.588 97.8533C162.719 98.5468 162.201 99.5118 162.033 100.749C161.848 102.116 162.055 103.307 162.657 104.321L160.07 103.97C159.601 102.877 159.458 101.653 159.642 100.297Z" fill="white"/>
<path d="M168.897 108.516L171.119 109.191L168.047 119.301L165.826 118.626L166.987 114.802L157.153 111.815L157.906 109.335L167.741 112.322L168.897 108.516Z" fill="white"/>
<path d="M152.995 121.816L155.764 116.117L167.097 121.624L164.509 126.95C164 127.997 163.348 128.708 162.553 129.082C161.752 129.466 160.904 129.441 160.008 129.006C159.457 128.738 159.053 128.375 158.796 127.917C158.539 127.458 158.423 126.982 158.45 126.488C158.021 127.04 157.424 127.417 156.659 127.619C155.91 127.815 155.125 127.714 154.305 127.316C153.344 126.849 152.74 126.115 152.493 125.114C152.24 124.124 152.407 123.025 152.995 121.816ZM159.601 120.864L156.638 119.424L155.215 122.354C154.932 122.937 154.835 123.451 154.926 123.895C155.028 124.345 155.316 124.685 155.791 124.916C156.266 125.147 156.712 125.163 157.128 124.965C157.545 124.767 157.894 124.377 158.178 123.794L159.601 120.864ZM164.021 123.011L161.528 121.8L160.254 124.422C160.018 124.908 159.942 125.338 160.027 125.713C160.106 126.099 160.34 126.386 160.729 126.575C161.128 126.769 161.504 126.778 161.856 126.602C162.214 126.442 162.511 126.12 162.747 125.634L164.021 123.011Z" fill="white"/>
<path d="M149.071 128.24C149.569 127.534 150.033 127.083 150.465 126.888L152.333 128.206C151.911 128.408 151.538 128.739 151.213 129.2C150.909 129.631 150.765 130.044 150.781 130.437C150.794 130.814 150.985 131.345 151.353 132.03L161.296 133.205L159.646 135.544L152.75 134.579L156.202 140.428L154.614 142.678L149.23 133.198C148.142 131.285 148.089 129.632 149.071 128.24Z" fill="white"/>
<path d="M137.063 142.881L143.647 136.103L152.685 144.882L146.239 151.518L144.573 149.901L149.214 145.123L147.471 143.43L143.733 147.278L142.093 145.685L145.831 141.837L143.507 139.58L138.728 144.499L137.063 142.881Z" fill="white"/>
<path d="M142.567 151.734L143.973 153.581L135.567 159.982L134.16 158.135L137.339 155.714L131.113 147.537L133.175 145.966L139.402 154.144L142.567 151.734Z" fill="white"/>
<path d="M128.392 161.592L129.384 163.692L119.829 168.203L118.838 166.103L122.451 164.397L118.063 155.103L120.407 153.996L124.795 163.29L128.392 161.592Z" fill="white"/>
<path d="M111.565 157.654L114.048 156.91L117.665 168.98L112.389 170.561C111.09 170.95 109.965 170.918 109.015 170.464C108.056 170.024 107.415 169.264 107.091 168.184C106.764 167.092 106.88 166.099 107.439 165.205C107.983 164.302 108.904 163.657 110.203 163.268L112.996 162.431L111.565 157.654ZM114.531 167.552L113.632 164.551L111.011 165.337C110.413 165.516 109.986 165.782 109.728 166.135C109.474 166.499 109.419 166.922 109.564 167.405C109.709 167.888 109.985 168.206 110.395 168.359C110.807 168.523 111.312 168.516 111.91 168.337L114.531 167.552Z" fill="white"/>
<path d="M93.4629 161.322L102.832 160.088L104.478 172.58L95.3051 173.788L95.0018 171.486L101.605 170.616L101.287 168.207L95.9693 168.908L95.6707 166.641L100.989 165.941L100.565 162.728L93.7662 163.624L93.4629 161.322Z" fill="white"/>
<path d="M85.8642 161.262L91.2969 161.45L90.8594 174.043L81.7209 173.725L81.8015 171.405L88.3496 171.632L88.4196 169.617L85.5773 169.519C84.1022 169.467 82.9582 169.043 82.1454 168.247C81.309 167.437 80.9119 166.427 80.954 165.215C80.996 164.004 81.4564 163.023 82.335 162.274C83.2127 161.548 84.3891 161.21 85.8642 161.262ZM88.4946 167.459L88.6271 163.645L85.9827 163.553C85.2272 163.527 84.6399 163.668 84.2209 163.978C83.8019 164.288 83.5818 164.748 83.5605 165.36C83.5393 165.972 83.7327 166.453 84.1407 166.803C84.5368 167.153 85.1066 167.341 85.8502 167.367L88.4946 167.459Z" fill="white"/>
<path d="M75.4662 163.564C74.9059 162.643 74.0806 162.063 72.9904 161.825C71.9118 161.589 70.9259 161.773 70.0325 162.376C69.1391 162.979 68.5655 163.861 68.3118 165.022C68.0581 166.182 68.2114 167.223 68.7717 168.144C69.332 169.065 70.1514 169.643 71.2299 169.879C72.3202 170.117 73.312 169.935 74.2054 169.332C75.0845 168.738 75.6522 167.854 75.9085 166.682C76.1647 165.51 76.0173 164.47 75.4662 163.564ZM78.4934 167.247C78.0988 169.052 77.1645 170.433 75.6905 171.388C74.2114 172.367 72.5516 172.655 70.711 172.253C68.8822 171.853 67.4999 170.9 66.564 169.393C65.6164 167.884 65.3374 166.238 65.7269 164.457C66.1138 162.686 67.054 161.307 68.5474 160.319C70.0265 159.341 71.6804 159.051 73.5093 159.451C75.3498 159.853 76.738 160.808 77.6739 162.314C78.6097 163.821 78.8829 165.465 78.4934 167.247Z" fill="white"/>
<path d="M59.6866 155.234L65.5221 157.703L60.6137 169.307L55.1595 167C54.0875 166.547 53.344 165.933 52.9291 165.158C52.5031 164.378 52.4841 163.53 52.8721 162.613C53.1105 162.049 53.452 161.627 53.8966 161.346C54.3411 161.065 54.8108 160.925 55.3056 160.925C54.7317 160.526 54.324 159.95 54.0825 159.196C53.8474 158.458 53.9075 157.67 54.2627 156.83C54.6788 155.846 55.3801 155.204 56.3666 154.905C57.3421 154.601 58.4488 154.711 59.6866 155.234ZM60.9822 161.782L62.2654 158.749L59.2647 157.479C58.6679 157.227 58.15 157.158 57.7109 157.272C57.2671 157.397 56.9424 157.702 56.7367 158.189C56.5311 158.675 56.5379 159.121 56.7573 159.526C56.9766 159.932 57.3847 160.261 57.9815 160.513L60.9822 161.782ZM59.0679 166.308L60.1478 163.755L57.4621 162.619C56.9648 162.409 56.5312 162.356 56.1614 162.46C55.7806 162.56 55.506 162.808 55.3377 163.206C55.1647 163.615 55.1752 163.991 55.369 164.333C55.5472 164.682 55.8849 164.962 56.3823 165.172L59.0679 166.308Z" fill="white"/>
<path d="M52.8679 151.905L55.1449 153.389L43.7013 161.056L41.6203 159.699L44.0163 146.135L46.3235 147.639L45.7716 150.76L50.2351 153.669L52.8679 151.905ZM44.4452 157.673L48.3868 155.021L45.2956 153.006L44.4452 157.673Z" fill="white"/>
<path d="M41.3628 143.641L43.2417 145.427L34.5616 154.56L32.6827 152.774L35.9316 149.356L31.8086 145.437L28.5597 148.856L26.6939 147.083L35.374 137.949L37.2398 139.723L33.433 143.728L37.556 147.647L41.3628 143.641Z" fill="white"/>
<path d="M32.5055 134.447L33.7867 136.208L23.5973 143.62L22.0726 141.524L28.7102 136.696L18.4831 136.589L17.1701 134.784L27.3595 127.372L28.8736 129.454L22.1923 134.314L32.5055 134.447Z" fill="white"/>
<path d="M25.2847 123.613L26.5705 126.31L20.016 125.068C20.1448 125.924 20.0337 126.695 19.6826 127.38C19.3156 128.061 18.7529 128.581 17.9947 128.943C16.9981 129.418 16.0233 129.451 15.0702 129.041C14.1115 128.647 13.3429 127.844 12.7646 126.63L10.255 121.366L21.6287 115.944L22.7441 118.284L18.1459 120.476L19.0908 122.458L25.2847 123.613ZM17.5121 124.208L16.1798 121.413L13.4176 122.73L14.7499 125.524C15.0029 126.055 15.3263 126.413 15.72 126.597C16.0978 126.776 16.5033 126.762 16.9365 126.556C17.3807 126.344 17.6522 126.035 17.751 125.629C17.8448 125.212 17.7651 124.738 17.5121 124.208Z" fill="white"/>
<path d="M19.9458 111.09L20.5857 113.602L8.37568 116.712L7.74023 114.218L11.8966 109.388L5.93608 107.136L5.30507 104.659L17.5151 101.549L18.1461 104.026L9.79095 106.154L14.431 107.963L14.7865 109.358L11.5907 113.218L19.9458 111.09Z" fill="white"/>
<circle cx="12.8437" cy="83.4882" r="5" fill="#0089CD"/>
</svg>
